<svg width="201" height="24" viewBox="0 0 201 24" fill="none" xmlns="http://www.w3.org/2000/svg">
<path d="M90.9402 23.9496C66.6474 23.6819 44.0061 22.36 27.2704 20.2323C10.5347 18.1045 0.856537 15.3174 0.0543753 12.3946C-0.747786 9.47175 7.38126 6.61439 22.9141 4.35938C38.447 2.10437 60.3146 0.606932 84.4081 0.148415L86.9161 2.04225C66.6726 2.4275 48.2995 3.68566 35.2487 5.58032C22.1979 7.47499 15.3678 9.87575 16.0418 12.3315C16.7158 14.7873 24.8474 17.1291 38.9088 18.9168C52.9702 20.7045 71.9935 21.8152 92.4044 22.0401L90.9402 23.9496Z" fill="url(#paint0_linear_331_270)"/>
<rect width="110.074" height="1.9243" rx="0.962152" transform="matrix(-0.999978 0.00655921 0.0206422 0.999787 200.389 21.2925)" fill="#F1F3F4"/>
<defs>
<linearGradient id="paint0_linear_331_270" x1="101.253" y1="9" x2="98.0295" y2="23.5403" gradientUnits="userSpaceOnUse">
<stop stop-color="#006699"/>
<stop offset="1" stop-color="#F1F2F4"/>
</linearGradient>
</defs>
</svg>
