<svg width="125" height="24" viewBox="0 0 125 24" fill="none" xmlns="http://www.w3.org/2000/svg">
<path d="M68.2842 23.9496C83.4347 23.6819 97.5553 22.36 107.993 20.2323C118.43 18.1045 124.466 15.3174 124.966 12.3946C125.467 9.47175 120.397 6.61439 110.71 4.35938C101.022 2.10437 87.3843 0.606932 72.3581 0.148415L70.7939 2.04225C83.419 2.4275 94.8777 3.68566 103.017 5.58032C111.156 7.47499 115.416 9.87575 114.996 12.3315C114.575 14.7873 109.504 17.1291 100.734 18.9168C91.9647 20.7045 80.1006 21.8152 67.371 22.0401L68.2842 23.9496Z" fill="url(#paint0_linear_102_857)"/>
<path d="M70.7326 2.05715C77.2598 2.05715 83.7232 2.31433 89.7536 2.81401C95.784 3.31368 101.263 4.04607 105.879 4.96935C110.494 5.89263 114.155 6.98872 116.653 8.19504C119.151 9.40137 120.437 10.6943 120.437 12C120.437 13.3057 119.151 14.5987 116.653 15.805C114.155 17.0113 110.494 18.1074 105.879 19.0307C101.263 19.954 95.784 20.6863 89.7536 21.186C83.7232 21.6857 77.2598 21.9429 70.7326 21.9429L70.7326 19.2722C75.5066 19.2722 80.2338 19.0841 84.6444 18.7186C89.055 18.3531 93.0626 17.8175 96.4383 17.1422C99.8141 16.4669 102.492 15.6652 104.319 14.7829C106.146 13.9006 107.086 12.955 107.086 12C107.086 11.045 106.146 10.0994 104.319 9.21708C102.492 8.33478 99.8141 7.53311 96.4383 6.85783C93.0626 6.18255 89.055 5.64688 84.6444 5.28142C80.2338 4.91597 75.5066 4.72787 70.7326 4.72787L70.7326 2.05715Z" fill="url(#paint1_radial_102_857)"/>
<rect width="68.6516" height="1.92405" rx="0.962026" transform="matrix(0.999945 0.0104571 -0.012949 0.999916 0.0249023 21.2925)" fill="#2A5978"/>
<path d="M21.6321 14.9932V7.72044H26.4474V8.98819H23.1697V10.7211H26.1278V11.9889H23.1697V14.9932H21.6321ZM29.5174 15.0997C28.9658 15.0997 28.4888 14.9825 28.0863 14.7481C27.6862 14.5114 27.3772 14.1823 27.1594 13.7609C26.9416 13.3372 26.8327 12.8459 26.8327 12.2872C26.8327 11.7238 26.9416 11.2313 27.1594 10.8099C27.3772 10.3862 27.6862 10.0571 28.0863 9.82271C28.4888 9.58597 28.9658 9.4676 29.5174 9.4676C30.069 9.4676 30.5449 9.58597 30.945 9.82271C31.3474 10.0571 31.6576 10.3862 31.8754 10.8099C32.0932 11.2313 32.2021 11.7238 32.2021 12.2872C32.2021 12.8459 32.0932 13.3372 31.8754 13.7609C31.6576 14.1823 31.3474 14.5114 30.945 14.7481C30.5449 14.9825 30.069 15.0997 29.5174 15.0997ZM29.5245 13.9278C29.7754 13.9278 29.985 13.8568 30.1531 13.7148C30.3211 13.5703 30.4478 13.3738 30.533 13.1253C30.6206 12.8767 30.6644 12.5938 30.6644 12.2765C30.6644 11.9593 30.6206 11.6764 30.533 11.4278C30.4478 11.1792 30.3211 10.9827 30.1531 10.8383C29.985 10.6939 29.7754 10.6217 29.5245 10.6217C29.2712 10.6217 29.0581 10.6939 28.8853 10.8383C28.7148 10.9827 28.5858 11.1792 28.4982 11.4278C28.413 11.6764 28.3704 11.9593 28.3704 12.2765C28.3704 12.5938 28.413 12.8767 28.4982 13.1253C28.5858 13.3738 28.7148 13.5703 28.8853 13.7148C29.0581 13.8568 29.2712 13.9278 29.5245 13.9278ZM33.1857 14.9932V9.53862H34.6523V10.4903H34.7092C34.8086 10.1518 34.9755 9.8961 35.2099 9.72328C35.4442 9.54809 35.7141 9.46049 36.0195 9.46049C36.0953 9.46049 36.177 9.46523 36.2646 9.4747C36.3522 9.48417 36.4291 9.49719 36.4954 9.51376V10.8561C36.4244 10.8348 36.3261 10.8158 36.2006 10.7993C36.0752 10.7827 35.9603 10.7744 35.8562 10.7744C35.6336 10.7744 35.4348 10.8229 35.2596 10.92C35.0868 11.0147 34.9495 11.1473 34.8477 11.3177C34.7482 11.4882 34.6985 11.6847 34.6985 11.9072V14.9932H33.1857ZM37.2775 14.9932V9.53862H38.7193V10.501H38.7832C38.8968 10.1814 39.0862 9.92924 39.3514 9.74458C39.6165 9.55993 39.9338 9.4676 40.3031 9.4676C40.6771 9.4676 40.9956 9.56111 41.2583 9.74814C41.5211 9.93279 41.6963 10.1837 41.7839 10.501H41.8407C41.952 10.1885 42.1532 9.93871 42.4444 9.75169C42.738 9.56229 43.0848 9.4676 43.4849 9.4676C43.9939 9.4676 44.407 9.62976 44.7243 9.9541C45.0439 10.2761 45.2037 10.733 45.2037 11.3248V14.9932H43.6944V11.6231C43.6944 11.3201 43.6139 11.0928 43.4529 10.9413C43.292 10.7898 43.0907 10.714 42.8493 10.714C42.5746 10.714 42.3604 10.8016 42.2065 10.9768C42.0526 11.1497 41.9757 11.3781 41.9757 11.6622V14.9932H40.5091V11.5912C40.5091 11.3237 40.4321 11.1106 40.2782 10.952C40.1267 10.7934 39.9267 10.714 39.6781 10.714C39.51 10.714 39.3585 10.7567 39.2235 10.8419C39.091 10.9247 38.9856 11.0419 38.9075 11.1934C38.8294 11.3426 38.7903 11.5178 38.7903 11.719V14.9932H37.2775ZM47.954 15.0961C47.606 15.0961 47.2959 15.0358 47.0236 14.915C46.7514 14.7919 46.5359 14.6108 46.3773 14.3717C46.2211 14.1302 46.1429 13.8296 46.1429 13.4697C46.1429 13.1667 46.1986 12.9122 46.3098 12.7062C46.4211 12.5003 46.5726 12.3345 46.7644 12.2091C46.9561 12.0836 47.1739 11.9889 47.4178 11.925C47.664 11.8611 47.9221 11.8161 48.1919 11.79C48.5092 11.7569 48.7649 11.7261 48.959 11.6977C49.1531 11.6669 49.294 11.622 49.3816 11.5628C49.4692 11.5036 49.513 11.416 49.513 11.3V11.2787C49.513 11.0538 49.4419 10.8798 49.2999 10.7567C49.1602 10.6336 48.9614 10.572 48.7033 10.572C48.431 10.572 48.2144 10.6324 48.0534 10.7531C47.8925 10.8715 47.7859 11.0206 47.7338 11.2006L46.3347 11.0869C46.4057 10.7555 46.5454 10.469 46.7537 10.2275C46.9621 9.98369 47.2308 9.79667 47.5598 9.66646C47.8913 9.53388 48.2748 9.4676 48.7104 9.4676C49.0134 9.4676 49.3034 9.50311 49.5804 9.57413C49.8598 9.64515 50.1072 9.75524 50.3226 9.90439C50.5404 10.0535 50.7121 10.2453 50.8375 10.4797C50.963 10.7117 51.0257 10.9898 51.0257 11.3142V14.9932H49.5911V14.2368H49.5485C49.4609 14.4072 49.3437 14.5576 49.1969 14.6878C49.0501 14.8156 48.8738 14.9162 48.6678 14.9896C48.4618 15.0606 48.2239 15.0961 47.954 15.0961ZM48.3873 14.0521C48.6098 14.0521 48.8063 14.0083 48.9767 13.9207C49.1472 13.8308 49.281 13.71 49.378 13.5585C49.4751 13.407 49.5236 13.2354 49.5236 13.0436V12.4648C49.4763 12.4955 49.4112 12.5239 49.3283 12.55C49.2478 12.5737 49.1567 12.5961 49.0549 12.6175C48.9531 12.6364 48.8513 12.6541 48.7495 12.6707C48.6477 12.6849 48.5553 12.6979 48.4725 12.7098C48.2949 12.7358 48.1399 12.7773 48.0073 12.8341C47.8747 12.8909 47.7717 12.9678 47.6983 13.0649C47.6249 13.1596 47.5882 13.278 47.5882 13.42C47.5882 13.626 47.6628 13.7834 47.812 13.8923C47.9635 13.9988 48.1552 14.0521 48.3873 14.0521ZM54.6639 15.0997C54.1052 15.0997 53.6246 14.9813 53.2221 14.7446C52.822 14.5055 52.5143 14.174 52.2988 13.7503C52.0858 13.3265 51.9792 12.8388 51.9792 12.2872C51.9792 11.7285 52.0869 11.2384 52.3024 10.817C52.5202 10.3933 52.8291 10.063 53.2292 9.82626C53.6293 9.58715 54.1052 9.4676 54.6568 9.4676C55.1326 9.4676 55.5493 9.55401 55.9068 9.72683C56.2643 9.89965 56.5472 10.1423 56.7555 10.4548C56.9638 10.7673 57.0787 11.1343 57.1 11.5557H55.6724C55.6322 11.2834 55.5256 11.0644 55.3528 10.8987C55.1824 10.7306 54.9586 10.6466 54.6816 10.6466C54.4473 10.6466 54.2425 10.7105 54.0673 10.8383C53.8945 10.9638 53.7595 11.1473 53.6625 11.3888C53.5654 11.6302 53.5169 11.9226 53.5169 12.2659C53.5169 12.6139 53.5642 12.9098 53.6589 13.1537C53.756 13.3975 53.8921 13.5834 54.0673 13.7112C54.2425 13.839 54.4473 13.903 54.6816 13.903C54.8545 13.903 55.0095 13.8675 55.1468 13.7964C55.2865 13.7254 55.4013 13.6224 55.4913 13.4875C55.5836 13.3502 55.644 13.1856 55.6724 12.9939H57.1C57.0763 13.4105 56.9627 13.7775 56.7591 14.0947C56.5578 14.4096 56.2797 14.6558 55.9245 14.8334C55.5694 15.0109 55.1492 15.0997 54.6639 15.0997ZM58.0685 14.9932V9.53862H59.5813V14.9932H58.0685ZM58.8285 8.83549C58.6036 8.83549 58.4106 8.76092 58.2496 8.61177C58.091 8.46026 58.0117 8.27915 58.0117 8.06845C58.0117 7.86011 58.091 7.68137 58.2496 7.53223C58.4106 7.38071 58.6036 7.30495 58.8285 7.30495C59.0534 7.30495 59.2451 7.38071 59.4038 7.53223C59.5647 7.68137 59.6452 7.86011 59.6452 8.06845C59.6452 8.27915 59.5647 8.46026 59.4038 8.61177C59.2451 8.76092 59.0534 8.83549 58.8285 8.83549ZM63.2576 15.0997C62.706 15.0997 62.229 14.9825 61.8265 14.7481C61.4264 14.5114 61.1175 14.1823 60.8997 13.7609C60.6819 13.3372 60.573 12.8459 60.573 12.2872C60.573 11.7238 60.6819 11.2313 60.8997 10.8099C61.1175 10.3862 61.4264 10.0571 61.8265 9.82271C62.229 9.58597 62.706 9.4676 63.2576 9.4676C63.8092 9.4676 64.2851 9.58597 64.6852 9.82271C65.0877 10.0571 65.3978 10.3862 65.6156 10.8099C65.8334 11.2313 65.9423 11.7238 65.9423 12.2872C65.9423 12.8459 65.8334 13.3372 65.6156 13.7609C65.3978 14.1823 65.0877 14.5114 64.6852 14.7481C64.2851 14.9825 63.8092 15.0997 63.2576 15.0997ZM63.2647 13.9278C63.5157 13.9278 63.7252 13.8568 63.8933 13.7148C64.0614 13.5703 64.188 13.3738 64.2733 13.1253C64.3609 12.8767 64.4047 12.5938 64.4047 12.2765C64.4047 11.9593 64.3609 11.6764 64.2733 11.4278C64.188 11.1792 64.0614 10.9827 63.8933 10.8383C63.7252 10.6939 63.5157 10.6217 63.2647 10.6217C63.0114 10.6217 62.7984 10.6939 62.6255 10.8383C62.4551 10.9827 62.3261 11.1792 62.2385 11.4278C62.1532 11.6764 62.1106 11.9593 62.1106 12.2765C62.1106 12.5938 62.1532 12.8767 62.2385 13.1253C62.3261 13.3738 62.4551 13.5703 62.6255 13.7148C62.7984 13.8568 63.0114 13.9278 63.2647 13.9278ZM62.7143 8.83549L63.4672 7.21973H64.8663L63.7832 8.83549H62.7143ZM68.4387 11.8398V14.9932H66.926V9.53862H68.3677V10.501H68.4316C68.5524 10.1837 68.7548 9.93279 69.0389 9.74814C69.323 9.56111 69.6674 9.4676 70.0723 9.4676C70.4511 9.4676 70.7813 9.55046 71.063 9.71618C71.3448 9.88189 71.5637 10.1186 71.72 10.4264C71.8762 10.7318 71.9544 11.0964 71.9544 11.5202V14.9932H70.4416V11.79C70.444 11.4562 70.3587 11.1958 70.1859 11.0088C70.0131 10.8194 69.7752 10.7247 69.4721 10.7247C69.2685 10.7247 69.0886 10.7685 68.9324 10.8561C68.7785 10.9437 68.6577 11.0715 68.5701 11.2396C68.4849 11.4053 68.4411 11.6054 68.4387 11.8398Z" fill="#3C5A9A"/>
<defs>
<linearGradient id="paint0_linear_102_857" x1="61.8527" y1="9" x2="66.6667" y2="22.5437" gradientUnits="userSpaceOnUse">
<stop offset="0.106224" stop-color="#DBD9DA"/>
<stop offset="1" stop-color="#2A5978"/>
</linearGradient>
<radialGradient id="paint1_radial_102_857" cx="0" cy="0" r="1" gradientUnits="userSpaceOnUse" gradientTransform="translate(70.8727 12.0001) rotate(-90) scale(4.8 23.9952)">
<stop stop-color="white"/>
<stop offset="1" stop-color="white" stop-opacity="0"/>
</radialGradient>
</defs>
</svg>
